{
	"asset":{
		"generator":"Khronos glTF Blender I/O v3.6.27",
		"version":"2.0"
	},
	"scene":0,
	"scenes":[
		{
			"name":"Scene",
			"nodes":[
				0
			]
		}
	],
	"nodes":[
		{
			"mesh":0,
			"name":"Cube",
			"scale":[
				10,
				0.5,
				10
			]
		}
	],
	"materials":[
		{
			"doubleSided":true,
			"name":"Material",
			"pbrMetallicRoughness":{
				"baseColorFactor":[
					0.800000011920929,
					0.800000011920929,
					0.800000011920929,
					1
				],
				"metallicFactor":0,
				"roughnessFactor":0.5
			}
		}
	],
	"meshes":[
		{
			"name":"Cube",
			"primitives":[
				{
					"attributes":{
						"POSITION":0,
						"NORMAL":1,
						"TEXCOORD_0":2
					},
					"indices":3,
					"material":0
				}
			]
		}
	],
	"accessors":[
		{
			"bufferView":0,
			"componentType":5126,
			"count":2147,
			"max":[
				1.100000023841858,
				20.0430850982666,
				1.0499999523162842
			],
			"min":[
				-1.0499999523162842,
				-1,
				-1.100000023841858
			],
			"type":"VEC3"
		},
		{
			"bufferView":1,
			"componentType":5126,
			"count":2147,
			"type":"VEC3"
		},
		{
			"bufferView":2,
			"componentType":5126,
			"count":2147,
			"type":"VEC2"
		},
		{
			"bufferView":3,
			"componentType":5123,
			"count":7008,
			"type":"SCALAR"
		}
	],
	"bufferViews":[
		{
			"buffer":0,
			"byteLength":25764,
			"byteOffset":0,
			"target":34962
		},
		{
			"buffer":0,
			"byteLength":25764,
			"byteOffset":25764,
			"target":34962
		},
		{
			"buffer":0,
			"byteLength":17176,
			"byteOffset":51528,
			"target":34962
		},
		{
			"buffer":0,
			"byteLength":14016,
			"byteOffset":68704,
			"target":34963
		}
	],
	"buffers":[
		{
			"byteLength":82720,
			"uri":"data:application/octet-stream;base64,"
		}
	]
}
